<?xml version="1.0" encoding="UTF-8"?>
<svg xmlns="http://www.w3.org/2000/svg" width="850" height="850" viewBox="0 0 850 850" fill="none">
  <path d="M61.8389 423.892H779.684" stroke="#B2B2B2" stroke-width="7" stroke-miterlimit="10"></path>
  <path d="M61.8389 180.88H779.684" stroke="#B2B2B2" stroke-width="7" stroke-miterlimit="10"></path>
  <path d="M699.746 427.089V88.1514" stroke="#B2B2B2" stroke-width="7" stroke-miterlimit="10"></path>
  <path d="M495.104 427.089V88.1514" stroke="#B2B2B2" stroke-width="7" stroke-miterlimit="10"></path>
  <path d="M290.462 427.089V88.1514" stroke="#B2B2B2" stroke-width="7" stroke-miterlimit="10"></path>
  <path d="M85.8203 427.089V88.1514" stroke="#B2B2B2" stroke-width="7" stroke-miterlimit="10"></path>
  <path d="M723.056 248.699L717.332 254.423" stroke="#B2B2B2" stroke-linecap="round" stroke-linejoin="round"></path>
  <path d="M762.098 209.657L727.74 244.015" stroke="#B2B2B2" stroke-linecap="round" stroke-linejoin="round"></path>
  <path d="M768.333 222.911L743.712 247.532" stroke="#B2B2B2" stroke-linecap="round" stroke-linejoin="round"></path>
  <path d="M555.473 132.565L549.749 138.289" stroke="#B2B2B2" stroke-linecap="round" stroke-linejoin="round"></path>
  <path d="M594.516 93.5234L560.158 127.881" stroke="#B2B2B2" stroke-linecap="round" stroke-linejoin="round"></path>
  <path d="M600.75 106.777L576.129 131.398" stroke="#B2B2B2" stroke-linecap="round" stroke-linejoin="round"></path>
  <path d="M179.764 132.565L174.04 138.289" stroke="#B2B2B2" stroke-linecap="round" stroke-linejoin="round"></path>
  <path d="M218.807 93.5234L184.449 127.881" stroke="#B2B2B2" stroke-linecap="round" stroke-linejoin="round"></path>
  <path d="M225.04 106.777L200.419 131.398" stroke="#B2B2B2" stroke-linecap="round" stroke-linejoin="round"></path>
  <path d="M433.888 253.367L428.164 259.107" stroke="#B2B2B2" stroke-linecap="round" stroke-linejoin="round"></path>
  <path d="M472.929 214.342L438.571 248.699" stroke="#B2B2B2" stroke-linecap="round" stroke-linejoin="round"></path>
  <path d="M479.164 227.579L454.543 252.2" stroke="#B2B2B2" stroke-linecap="round" stroke-linejoin="round"></path>
  <path d="M126.189 320.403L110.058 336.519" stroke="#B2B2B2" stroke-linecap="round" stroke-linejoin="round"></path>
  <path d="M236.137 210.457L139.348 307.23" stroke="#B2B2B2" stroke-linecap="round" stroke-linejoin="round"></path>
  <path d="M253.69 247.771L184.352 317.11" stroke="#B2B2B2" stroke-linecap="round" stroke-linejoin="round"></path>
  <path d="M725.886 459.768C725.886 459.768 702.257 446.642 700.514 476.395C698.771 506.148 694.391 699.503 694.391 699.503" stroke="#263238" stroke-width="2" stroke-linecap="round" stroke-linejoin="round"></path>
  <path d="M688.252 479.017C688.252 479.017 707.517 521.879 698.756 696.88" stroke="#263238" stroke-width="2" stroke-linecap="round" stroke-linejoin="round"></path>
  <path d="M707.181 465.747C707.181 465.747 698.132 471.551 693 464.916C687.868 458.281 696.47 446.146 688.875 440.934C681.281 435.722 668.171 443.652 668.171 443.652C668.171 443.652 678.26 446.626 677.94 452.142C677.62 457.658 672.744 459.736 672.104 457.322C671.465 454.908 666.637 442.773 658.435 447.825C656.07 449.222 654.014 451.085 652.39 453.3C650.766 455.515 649.608 458.036 648.986 460.711C648.986 460.711 668.076 458.665 669.227 465.859C670.378 473.054 661.393 464.596 653.527 464.133C645.661 463.669 638.466 464.836 638.962 469.6C639.145 473.814 638.899 478.035 638.227 482.199C638.227 482.199 644.893 476.267 653.559 476.779C662.224 477.29 661.904 482.806 654.022 482.342C646.14 481.879 639.378 489.393 639.378 489.393C639.378 489.393 646.556 501.672 655.685 507.731C664.814 513.79 668.108 511.632 669.179 506.947C670.25 502.263 667.788 490.272 673.303 490.592C678.819 490.912 664.175 511.376 671.209 512.607C678.244 513.838 683.903 511.776 685.758 507.139L687.612 502.503C687.612 502.503 685.166 490.512 686.222 485.828C687.277 481.143 688.588 485.972 689.835 491.567C691.082 497.163 691.881 510.657 694.279 510.017C696.677 509.378 704.383 499.545 706.19 495.628C707.997 491.711 696.054 480.024 696.198 477.658C696.342 475.292 705.551 479.784 706.989 482.247C708.029 484.094 708.974 485.994 709.819 487.938C709.819 487.938 715.559 484.325 715.415 473.261C715.271 462.198 707.181 465.747 707.181 465.747Z" fill="#44A145"></path>
  <path opacity="0.3" d="M707.181 465.747C707.181 465.747 698.132 471.551 693 464.916C687.868 458.281 696.47 446.146 688.875 440.934C681.281 435.722 668.171 443.652 668.171 443.652C668.171 443.652 678.26 446.626 677.94 452.142C677.62 457.658 672.744 459.736 672.104 457.322C671.465 454.908 666.637 442.773 658.435 447.825C656.07 449.222 654.014 451.085 652.39 453.3C650.766 455.515 649.608 458.036 648.986 460.711C648.986 460.711 668.076 458.665 669.227 465.859C670.378 473.054 661.393 464.596 653.527 464.133C645.661 463.669 638.466 464.836 638.962 469.6C639.145 473.814 638.899 478.035 638.227 482.199C638.227 482.199 644.893 476.267 653.559 476.779C662.224 477.29 661.904 482.806 654.022 482.342C646.14 481.879 639.378 489.393 639.378 489.393C639.378 489.393 646.556 501.672 655.685 507.731C664.814 513.79 668.108 511.632 669.179 506.947C670.25 502.263 667.788 490.272 673.303 490.592C678.819 490.912 664.175 511.376 671.209 512.607C678.244 513.838 683.903 511.776 685.758 507.139L687.612 502.503C687.612 502.503 685.166 490.512 686.222 485.828C687.277 481.143 688.588 485.972 689.835 491.567C691.082 497.163 691.881 510.657 694.279 510.017C696.677 509.378 704.383 499.545 706.19 495.628C707.997 491.711 696.054 480.024 696.198 477.658C696.342 475.292 705.551 479.784 706.989 482.247C708.029 484.094 708.974 485.994 709.819 487.938C709.819 487.938 715.559 484.325 715.415 473.261C715.271 462.198 707.181 465.747 707.181 465.747Z" fill="#263238"></path>
  <path d="M661.375 491.711C667.274 484.437 675.956 474.572 683.23 469.872" stroke="#263238" stroke-linecap="round" stroke-linejoin="round"></path>
  <path d="M654.532 500.633C654.532 500.633 656.051 498.539 658.497 495.373" stroke="#263238" stroke-linecap="round" stroke-linejoin="round"></path>
  <path d="M687.068 471.679C687.068 471.679 695.814 484.053 697.444 496.795" stroke="#263238" stroke-linecap="round" stroke-linejoin="round"></path>
  <path d="M677.14 479.001C677.14 479.001 679.602 477.562 678.738 493.31" stroke="#263238" stroke-linecap="round" stroke-linejoin="round"></path>
  <path d="M683.551 464.355C683.551 464.355 688.555 459.911 685.901 451.054" stroke="#263238" stroke-linecap="round" stroke-linejoin="round"></path>
  <path d="M676.772 471.871L673.207 465.332" stroke="#263238" stroke-linecap="round" stroke-linejoin="round"></path>
  <path d="M669.274 478.537C669.274 478.537 657.923 469.968 650.824 469.536" stroke="#263238" stroke-linecap="round" stroke-linejoin="round"></path>
  <path d="M739.379 442.405C739.379 442.405 739.027 455.403 728.875 456.027C718.723 456.65 712.456 439.767 702.08 443.828C691.704 447.889 690.697 466.419 690.697 466.419C690.697 466.419 700.561 458.329 705.853 462.422C711.145 466.515 709.93 472.798 707.068 471.807C704.206 470.815 688.778 467.362 688.251 479.017C688.028 482.332 688.48 485.658 689.579 488.793C690.678 491.929 692.402 494.809 694.646 497.259C694.646 497.259 705.613 476.763 713.607 480.488C721.601 484.213 707.004 487.474 701.169 495.053C695.333 502.631 691.576 510.593 696.724 513.342C701.073 516.031 705.134 519.16 708.843 522.679C708.843 522.679 707.452 511.952 713.863 503.622C720.274 495.292 725.582 499.385 719.746 506.947C713.911 514.51 716.82 526.404 716.82 526.404C716.82 526.404 734.007 527.587 746.302 522.599C758.596 517.611 758.676 512.815 754.711 508.562C750.746 504.309 737.125 498.57 741.154 493.278C745.183 487.986 755.75 516.604 761.762 510.369C767.773 504.134 769.58 497.099 766.206 492.079L762.833 487.059C762.833 487.059 749.147 481.335 745.247 477.082C741.346 472.83 747.005 474.812 753.464 477.386C759.923 479.96 773.96 488.354 774.952 485.508C775.943 482.662 771.37 468.257 768.748 463.813C766.126 459.368 746.19 463.333 743.92 461.59C741.649 459.848 752.441 453.597 755.878 453.9C758.437 454.122 760.982 454.474 763.504 454.956C763.504 454.956 763.808 446.738 752.633 439.336C741.457 431.933 739.379 442.405 739.379 442.405Z" fill="#44A145"></path>
  <path opacity="0.2" d="M739.379 442.405C739.379 442.405 739.027 455.403 728.875 456.027C718.723 456.65 712.456 439.767 702.08 443.828C691.704 447.889 690.697 466.419 690.697 466.419C690.697 466.419 700.561 458.329 705.853 462.422C711.145 466.515 709.93 472.798 707.068 471.807C704.206 470.815 688.778 467.362 688.251 479.017C688.028 482.332 688.48 485.658 689.579 488.793C690.678 491.929 692.402 494.809 694.646 497.259C694.646 497.259 705.613 476.763 713.607 480.488C721.601 484.213 707.004 487.474 701.169 495.053C695.333 502.631 691.576 510.593 696.724 513.342C701.073 516.031 705.134 519.16 708.843 522.679C708.843 522.679 707.452 511.952 713.863 503.622C720.274 495.292 725.582 499.385 719.746 506.947C713.911 514.51 716.82 526.404 716.82 526.404C716.82 526.404 734.007 527.587 746.302 522.599C758.596 517.611 758.676 512.815 754.711 508.562C750.746 504.309 737.125 498.57 741.154 493.278C745.183 487.986 755.75 516.604 761.762 510.369C767.773 504.134 769.58 497.099 766.206 492.079L762.833 487.059C762.833 487.059 749.147 481.335 745.247 477.082C741.346 472.83 747.005 474.812 753.464 477.386C759.923 479.96 773.96 488.354 774.952 485.508C775.943 482.662 771.37 468.257 768.748 463.813C766.126 459.368 746.19 463.333 743.92 461.59C741.649 459.848 752.441 453.597 755.878 453.9C758.437 454.122 760.982 454.474 763.504 454.956C763.504 454.956 763.808 446.738 752.633 439.336C741.457 431.933 739.379 442.405 739.379 442.405Z" fill="#263238"></path>
  <path d="M734.152 505.973C730.955 495.101 726.926 479.689 727.182 469.201" stroke="#263238" stroke-linecap="round" stroke-linejoin="round"></path>
  <path d="M738.372 518.859C738.372 518.859 737.301 515.901 735.814 511.297" stroke="#263238" stroke-linecap="round" stroke-linejoin="round"></path>
  <path d="M731.61 466.579C731.61 466.579 749.964 466.243 763.825 473.309" stroke="#263238" stroke-linecap="round" stroke-linejoin="round"></path>
  <path d="M732.185 481.447C732.185 481.447 732.408 478.01 747.549 489.681" stroke="#263238" stroke-linecap="round" stroke-linejoin="round"></path>
  <path d="M721.874 465.124C721.874 465.124 720.835 457.13 710.171 453.677" stroke="#263238" stroke-linecap="round" stroke-linejoin="round"></path>
  <path d="M724.783 477.003L715.813 476.124" stroke="#263238" stroke-linecap="round" stroke-linejoin="round"></path>
  <path d="M726.35 489.073C726.35 489.073 710.027 494.589 704.767 501.4" stroke="#263238" stroke-linecap="round" stroke-linejoin="round"></path>
  <path d="M630.52 528.883C630.52 528.883 682.16 562.984 681.264 695.122" stroke="#263238" stroke-width="2" stroke-linecap="round" stroke-linejoin="round"></path>
  <path d="M694.166 519.817C694.166 519.817 692.567 534.781 680.752 534.558C668.937 534.334 663.358 514.221 650.999 517.946C638.641 521.671 635.795 542.999 635.795 542.999C635.795 542.999 647.93 534.59 653.653 539.802C659.377 545.013 657.378 552.16 654.165 550.737C650.951 549.314 633.477 543.878 631.782 557.276C631.2 561.084 631.397 564.97 632.361 568.7C633.326 572.429 635.038 575.923 637.394 578.971C637.394 578.971 651.991 556.349 660.848 561.385C669.705 566.421 652.582 568.835 645.132 577.005C637.682 585.174 632.614 594.048 638.273 597.693C643.933 601.338 651.367 609.62 651.367 609.62C651.367 609.62 650.776 597.117 658.977 588.116C667.179 579.115 672.886 584.311 665.372 592.497C657.858 600.682 660.16 614.688 660.16 614.688C660.16 614.688 679.889 617.661 694.55 613.089C709.21 608.516 709.738 602.969 705.565 597.693C701.392 592.417 686.156 584.503 691.368 578.779C696.58 573.056 706.013 607.062 713.527 600.443C721.041 593.824 723.807 585.862 720.386 579.755L716.964 573.647C716.964 573.647 701.712 565.749 697.555 560.474C693.399 555.198 699.778 558.011 707.004 561.593C714.231 565.174 729.627 576.189 730.986 572.992C732.345 569.794 728.459 552.736 725.869 547.412C723.279 542.088 699.89 544.726 697.427 542.487C694.965 540.249 708.011 534.158 711.944 534.749C714.88 535.251 717.788 535.902 720.658 536.7C720.658 536.7 721.777 527.235 709.578 517.627C697.38 508.018 694.166 519.817 694.166 519.817Z" fill="#44A145"></path>
  <path opacity="0.3" d="M694.166 519.817C694.166 519.817 692.567 534.781 680.752 534.558C668.937 534.334 663.358 514.221 650.999 517.946C638.641 521.671 635.795 542.999 635.795 542.999C635.795 542.999 647.93 534.59 653.653 539.802C659.377 545.013 657.378 552.16 654.165 550.737C650.951 549.314 633.477 543.878 631.782 557.276C631.2 561.084 631.397 564.97 632.361 568.7C633.326 572.429 635.038 575.923 637.394 578.971C637.394 578.971 651.991 556.349 660.848 561.385C669.705 566.421 652.582 568.835 645.132 577.005C637.682 585.174 632.614 594.048 638.273 597.693C643.933 601.338 651.367 609.62 651.367 609.62C651.367 609.62 650.776 597.117 658.977 588.116C667.179 579.115 672.886 584.311 665.372 592.497C657.858 600.682 660.16 614.688 660.16 614.688C660.16 614.688 679.889 617.661 694.55 613.089C709.21 608.516 709.738 602.969 705.565 597.693C701.392 592.417 686.156 584.503 691.368 578.779C696.58 573.056 706.013 607.062 713.527 600.443C721.041 593.824 723.807 585.862 720.386 579.755L716.964 573.647C716.964 573.647 701.712 565.749 697.555 560.474C693.399 555.198 699.778 558.011 707.004 561.593C714.231 565.174 729.627 576.189 730.986 572.992C732.345 569.794 728.459 552.736 725.869 547.412C723.279 542.088 699.89 544.726 697.427 542.487C694.965 540.249 708.011 534.158 711.944 534.749C714.88 535.251 717.788 535.902 720.658 536.7C720.658 536.7 721.777 527.235 709.578 517.627C697.38 508.018 694.166 519.817 694.166 519.817Z" fill="#263238"></path>
  <path d="M682.159 592.721C679.409 579.931 676.308 561.721 677.587 549.555" stroke="#263238" stroke-linecap="round" stroke-linejoin="round"></path>
  <path d="M685.789 607.989C685.789 607.989 684.83 604.488 683.551 599.036" stroke="#263238" stroke-linecap="round" stroke-linejoin="round"></path>
  <path d="M682.91 546.997C682.91 546.997 704.126 548.356 719.458 557.805" stroke="#263238" stroke-linecap="round" stroke-linejoin="round"></path>
  <path d="M682.159 564.294C682.159 564.294 682.751 560.361 699.122 575.246" stroke="#263238" stroke-linecap="round" stroke-linejoin="round"></path>
  <path d="M671.831 544.422C671.831 544.422 671.383 535.037 659.393 530.129" stroke="#263238" stroke-linecap="round" stroke-linejoin="round"></path>
  <path d="M674.053 558.411L663.773 556.557" stroke="#263238" stroke-linecap="round" stroke-linejoin="round"></path>
  <path d="M674.709 572.48C674.709 572.48 655.364 577.277 648.665 584.679" stroke="#263238" stroke-linecap="round" stroke-linejoin="round"></path>
  <path d="M650.647 633.01C650.647 633.01 683.886 658.383 687.419 696.002L680.416 570.003" stroke="#263238" stroke-width="2" stroke-linecap="round" stroke-linejoin="round"></path>
  <path d="M731.13 614.624C687.388 606.758 687.388 696.001 687.388 696.001" stroke="#263238" stroke-width="2" stroke-linecap="round" stroke-linejoin="round"></path>
  <path d="M692.631 695.122C692.631 695.122 667.259 510.513 740.754 510.513" stroke="#263238" stroke-width="2" stroke-linecap="round" stroke-linejoin="round"></path>
  <path d="M714.47 609.348C708.491 602.633 695.797 602.633 688.315 619.82C680.832 637.006 687.579 634.001 687.579 634.001C687.579 634.001 701.76 629.524 710.729 626.535C719.698 623.545 731.721 616.047 732.392 620.539C733.064 625.032 726.413 629.508 718.195 630.995C709.978 632.482 688.315 638.477 690.569 642.954C692.823 647.43 698.035 660.876 698.035 660.876C704.421 655.463 711.156 650.475 718.195 645.944C727.916 639.964 733.879 642.202 728.651 648.933C723.423 655.664 708.491 663.114 711.481 672.083C714.47 681.052 732.392 692.244 732.392 692.244C732.392 692.244 734.631 673.57 739.859 667.607C745.087 661.643 745.087 668.342 743.6 678.798C742.849 683.243 742.347 687.727 742.097 692.228L763.025 699.71C763.025 699.71 770.491 688.519 774.216 684.762L777.957 681.036C777.957 681.036 761.522 666.839 760.771 657.87C760.019 648.901 771.962 657.87 775.719 659.373C779.476 660.876 785.423 671.316 785.423 671.316C785.423 671.316 789.165 654.145 789.916 648.166L790.651 642.187C790.651 642.187 774.968 636.207 768.988 636.207C763.009 636.207 760.035 640.7 760.035 634.72C760.035 628.741 765.998 625.016 772.729 625.751C778.813 626.773 784.805 628.275 790.651 630.244C790.651 630.244 795.144 626.503 793.641 615.295C792.138 604.088 788.413 604.104 779.444 607.078C770.475 610.051 764.512 616.798 757.797 616.798C751.082 616.798 754.807 608.58 759.284 606.342C763.76 604.104 774.968 599.611 777.206 598.86C779.444 598.109 765.263 587.669 757.797 586.166C750.331 584.663 740.642 589.939 741.362 597.357C742.912 613.057 720.434 616.047 714.47 609.348Z" fill="#44A145"></path>
  <path d="M762.546 686.233C762.77 688.488 762.93 690.742 763.026 692.98" stroke="#263238" stroke-linecap="round" stroke-linejoin="round"></path>
  <path d="M747.55 632.61C754.107 647.407 758.827 662.95 761.603 678.895" stroke="#263238" stroke-linecap="round" stroke-linejoin="round"></path>
  <path d="M744.847 626.616C741.154 618.622 738.452 613.826 738.452 613.826C742.526 611.895 745.912 608.766 748.157 604.857C749.901 601.318 752.459 598.244 755.623 595.888" stroke="#263238" stroke-linecap="round" stroke-linejoin="round"></path>
  <path d="M712.233 639.197C712.233 639.197 739.125 628.006 739.125 630.244" stroke="#263238" stroke-linecap="round" stroke-linejoin="round"></path>
  <path d="M754.104 625.016C754.104 625.016 766.046 619.037 776.486 619.037" stroke="#263238" stroke-linecap="round" stroke-linejoin="round"></path>
  <path d="M749.58 642.923C744.396 647.181 739.641 651.936 735.383 657.12C731.018 662.26 727.49 668.054 724.927 674.291" stroke="#263238" stroke-linecap="round" stroke-linejoin="round"></path>
  <path d="M757.798 645.927C757.798 645.927 773.482 641.435 781.699 648.917" stroke="#263238" stroke-linecap="round" stroke-linejoin="round"></path>
  <path d="M786.207 544.998C778.069 540.202 769.084 540.074 764.671 535.006C760.259 529.938 768.908 527.364 773.544 529.283C778.181 531.201 788.909 536.717 790.939 537.916C792.969 539.115 791.563 521.544 787.742 514.926C783.92 508.307 773.672 504.454 768.556 509.857C757.701 521.273 740.754 506.308 741.905 497.387C743.056 488.466 734.742 478.889 716.868 484.501C698.994 490.113 705.677 493.246 705.677 493.246C705.677 493.246 718.371 501.016 726.461 505.829C734.551 510.641 748.06 514.766 745.166 518.267C742.273 521.768 734.487 519.642 727.964 514.414C721.441 509.186 702.735 496.748 700.785 501.384C698.834 506.02 692.151 518.763 692.151 518.763C700.431 520.039 708.618 521.855 716.66 524.198C727.532 527.62 729.754 533.599 721.249 534.063C712.743 534.526 697.267 528.131 692.471 536.269C687.675 544.407 690.952 565.287 690.952 565.287C690.952 565.287 706.524 554.735 714.47 554.767C722.416 554.799 717.332 559.195 708.459 564.935C704.589 567.284 700.853 569.846 697.267 572.609L705.261 593.393C705.261 593.393 718.627 591.682 723.887 592.05L729.163 592.418C729.163 592.418 729.163 570.706 735.382 564.279C741.601 557.852 742.72 572.737 744.047 576.526C745.374 580.315 741.393 591.698 741.393 591.698C741.393 591.698 756.805 583.257 761.81 579.899L766.814 576.558C766.814 576.558 761.042 560.794 757.125 556.27C753.208 551.745 747.868 552.449 752.329 548.532C756.789 544.615 763.52 546.677 767.421 552.241C770.641 557.502 773.442 563.008 775.799 568.708C775.799 568.708 781.554 569.651 789.037 561.178C796.519 552.704 794.328 549.811 786.207 544.998ZM715.509 568.9C709.53 565.91 723.727 559.947 723.727 559.947C728.955 559.195 721.489 571.89 715.509 568.9ZM725.582 541.017C723.024 539.738 730.666 537.196 730.666 537.196C741.713 539.323 728.124 542.296 725.582 541.017Z" fill="#44A145"></path>
  <path d="M715.349 584.12C713.75 585.719 712.151 587.318 710.553 588.916" stroke="#263238" stroke-linecap="round" stroke-linejoin="round"></path>
  <path d="M746.014 537.628C739.136 552.28 730.492 566.036 720.273 578.588" stroke="#263238" stroke-linecap="round" stroke-linejoin="round"></path>
  <path d="M748.779 531.681C752.361 523.687 754.199 518.379 754.199 518.379C758.323 520.194 762.904 520.701 767.325 519.834C771.141 518.831 775.142 518.748 778.996 519.594" stroke="#263238" stroke-linecap="round" stroke-linejoin="round"></path>
  <path d="M742.272 529.713C743.967 528.242 717.875 515.324 717.875 515.324" stroke="#263238" stroke-linecap="round" stroke-linejoin="round"></path>
  <path d="M756.022 537.563C756.022 537.563 768.365 542.679 775.208 550.577" stroke="#263238" stroke-linecap="round" stroke-linejoin="round"></path>
  <path d="M739.539 545.941C732.928 544.822 726.224 544.345 719.522 544.518C712.778 544.595 706.087 545.733 699.697 547.891" stroke="#263238" stroke-linecap="round" stroke-linejoin="round"></path>
  <path d="M742.674 554.095C742.674 554.095 756.343 562.984 756.087 574.175" stroke="#263238" stroke-linecap="round" stroke-linejoin="round"></path>
  <path d="M670.138 648.502C663.583 644.633 656.356 644.537 652.807 640.508C649.258 636.479 656.228 634.353 659.953 635.887C663.679 637.422 672.312 641.883 673.943 642.842C675.573 643.801 674.454 629.668 671.417 624.344C668.379 619.02 660.081 615.919 655.941 620.267C647.195 629.46 633.558 617.406 634.485 610.227C635.412 603.049 628.714 595.343 614.341 599.867C599.968 604.392 605.324 606.902 605.324 606.902C605.324 606.902 615.54 613.153 622.079 617.022C628.618 620.891 639.473 624.216 637.139 627.046C634.805 629.876 628.538 628.133 623.294 623.849C618.05 619.564 602.989 609.636 601.455 613.361C599.92 617.086 594.5 627.366 594.5 627.366C601.161 628.381 607.746 629.839 614.213 631.731C622.974 634.481 624.765 639.293 617.922 639.724C611.079 640.156 598.657 634.928 594.788 641.499C590.919 648.07 593.557 664.857 593.557 664.857C593.557 664.857 606.091 656.368 612.486 656.384C618.881 656.4 614.788 659.965 607.69 664.569C604.589 666.458 601.6 668.524 598.737 670.757L605.228 687.4C610.194 686.736 615.197 686.378 620.208 686.328L624.461 686.632C624.461 686.632 624.461 669.158 629.465 663.978C634.469 658.798 635.38 670.788 636.436 673.842C637.491 676.896 634.197 686.089 634.197 686.089C634.197 686.089 646.62 679.294 650.633 676.592L654.662 673.89C654.662 673.89 650.025 661.212 646.86 657.567C643.694 653.922 639.409 654.497 643.039 651.332C646.668 648.166 652.104 649.845 655.189 654.321C657.783 658.558 660.033 662.995 661.92 667.591C661.92 667.591 666.556 668.342 672.584 661.516C678.611 654.689 676.677 652.371 670.138 648.502ZM613.254 667.687C608.441 665.305 619.808 660.508 619.808 660.508C624.061 659.917 618.05 670.101 613.254 667.735V667.687ZM621.343 645.304C619.297 644.281 625.436 642.235 625.436 642.235C634.325 643.929 623.39 646.327 621.407 645.288L621.343 645.304Z" fill="#44A145"></path>
  <path d="M613.125 679.981C611.862 681.308 610.583 682.587 609.256 683.834" stroke="#263238" stroke-linecap="round" stroke-linejoin="round"></path>
  <path d="M637.794 642.57C632.244 654.37 625.264 665.442 617.01 675.537" stroke="#263238" stroke-linecap="round" stroke-linejoin="round"></path>
  <path d="M640.017 637.775C642.894 631.38 644.381 627.079 644.381 627.079C647.701 628.54 651.39 628.947 654.949 628.246C658.019 627.446 661.234 627.38 664.334 628.054" stroke="#263238" stroke-linecap="round" stroke-linejoin="round"></path>
  <path d="M615.155 624.584C615.155 624.584 636.147 635.024 634.788 636.207" stroke="#263238" stroke-linecap="round" stroke-linejoin="round"></path>
  <path d="M645.836 642.523C645.836 642.523 655.78 646.632 661.296 652.979" stroke="#263238" stroke-linecap="round" stroke-linejoin="round"></path>
  <path d="M632.597 649.317C627.275 648.416 621.878 648.036 616.482 648.181C611.044 648.241 605.649 649.152 600.494 650.883" stroke="#263238" stroke-linecap="round" stroke-linejoin="round"></path>
  <path d="M635.108 655.824C635.108 655.824 646.108 662.987 645.9 671.924" stroke="#263238" stroke-linecap="round" stroke-linejoin="round"></path>
  <path d="M643.454 525.141C643.454 525.141 635.236 531.12 630.008 525.141C624.78 519.161 632.246 507.219 624.78 502.758C617.314 498.298 605.419 506.467 605.419 506.467C605.419 506.467 615.123 508.721 615.123 513.949C615.123 519.177 610.647 521.416 609.895 519.177C609.144 516.939 603.916 505.732 596.45 510.96C594.292 512.409 592.45 514.281 591.038 516.463C589.625 518.645 588.671 521.092 588.232 523.654C588.232 523.654 606.17 520.664 607.657 527.395C609.144 534.126 600.191 526.644 592.725 526.644C585.259 526.644 578.528 528.13 579.279 532.623C579.678 536.594 579.678 540.595 579.279 544.566C583.139 540.941 588.17 538.82 593.46 538.586C601.678 538.586 601.678 543.814 594.212 543.814C586.745 543.814 580.766 551.297 580.766 551.297C580.766 551.297 588.232 562.488 597.201 567.732C606.17 572.976 609.144 570.706 609.895 566.229C610.647 561.753 607.657 550.545 612.885 550.545C618.113 550.545 605.419 570.706 612.134 571.457C618.849 572.208 624.093 569.97 625.579 565.478L627.082 561.001C627.082 561.001 624.093 549.81 624.844 545.317C625.595 540.825 627.082 545.317 628.569 550.545C630.056 555.773 631.559 568.467 633.797 567.732C636.035 566.996 642.766 557.26 644.253 553.535C645.74 549.81 633.797 539.338 633.797 537.1C633.797 534.861 642.766 538.586 644.253 540.841C645.343 542.528 646.341 544.273 647.243 546.069C647.243 546.069 652.471 542.328 651.735 531.872C651 521.416 643.454 525.141 643.454 525.141Z" fill="#44A145"></path>
  <path d="M601.598 552.24C606.762 545.029 614.388 535.229 621.039 530.385" stroke="#263238" stroke-linecap="round" stroke-linejoin="round"></path>
  <path d="M595.634 561.001C595.634 561.001 596.961 558.923 599.103 555.821" stroke="#263238" stroke-linecap="round" stroke-linejoin="round"></path>
  <path d="M624.78 531.873C624.78 531.873 633.733 543.064 635.972 555.023" stroke="#263238" stroke-linecap="round" stroke-linejoin="round"></path>
  <path d="M615.811 539.338C615.811 539.338 618.049 537.851 618.049 552.783" stroke="#263238" stroke-linecap="round" stroke-linejoin="round"></path>
  <path d="M621.039 525.141C621.039 525.141 625.516 520.665 622.526 512.447" stroke="#263238" stroke-linecap="round" stroke-linejoin="round"></path>
  <path d="M615.059 532.623L611.334 526.644" stroke="#263238" stroke-linecap="round" stroke-linejoin="round"></path>
  <path d="M608.345 539.339C608.345 539.339 597.154 531.873 590.407 531.873" stroke="#263238" stroke-linecap="round" stroke-linejoin="round"></path>
  <path d="M718.884 692.5H661.137V775.62H718.884V692.5Z" fill="#263238" stroke="#263238" stroke-width="2" stroke-linecap="round" stroke-linejoin="round"></path>
  <path d="M111.4 775.62H68.2334" stroke="#263238" stroke-miterlimit="10" stroke-linecap="round"></path>
  <path d="M742.912 775.62H132.184" stroke="#263238" stroke-miterlimit="10" stroke-linecap="round"></path>
  <path d="M493.664 338.694C495.155 343.962 496.224 349.34 496.862 354.778C497.581 362.276 497.23 371.213 497.581 372.636C497.933 374.059 516.159 382.229 516.159 382.229L511.874 406.53C511.874 406.53 495.791 394.379 489.364 387.936C482.937 381.493 480.075 377.928 476.845 375.146C473.616 372.364 461.13 363.347 456.477 358.695C451.825 354.042 449.331 345.473 453.631 343.331C457.932 341.188 475.423 344.402 476.845 345.473C478.268 346.544 483.64 345.841 483.64 345.841L490.435 339.446L493.664 338.694Z" fill="white" stroke="#263238" stroke-miterlimit="10" stroke-linecap="round"></path>
  <path d="M438.635 326.895L475.438 367.999L497.229 359.062L465.798 319.748L438.635 326.895Z" fill="#263238" stroke="#263238" stroke-miterlimit="10" stroke-linecap="round"></path>
  <path d="M490.802 344.402C488.66 346.545 482.585 351.197 480.442 351.916C478.3 352.636 473.296 349.774 475.79 347.264C478.284 344.754 487.941 333.69 487.941 333.69C488.177 333.313 488.513 333.008 488.911 332.808C489.309 332.609 489.754 332.523 490.198 332.559C490.642 332.595 491.067 332.753 491.427 333.014C491.788 333.276 492.069 333.631 492.241 334.042C494.384 337.24 494.016 343.331 494.016 343.331" fill="white"></path>
  <path d="M490.802 344.402C488.66 346.545 482.585 351.197 480.442 351.916C478.3 352.636 473.296 349.774 475.79 347.264C478.284 344.754 487.941 333.69 487.941 333.69C488.177 333.313 488.513 333.008 488.911 332.808C489.309 332.609 489.754 332.523 490.198 332.559C490.642 332.595 491.067 332.753 491.427 333.014C491.788 333.276 492.069 333.631 492.241 334.042C494.384 337.24 494.016 343.331 494.016 343.331" stroke="#263238" stroke-miterlimit="10" stroke-linecap="round"></path>
  <path d="M450.339 338.901C450.339 338.901 447.861 350.732 449.795 352.331C450.26 352.668 450.804 352.878 451.375 352.942C451.945 353.006 452.522 352.921 453.05 352.696C453.578 352.47 454.039 352.112 454.387 351.656C454.736 351.2 454.96 350.661 455.039 350.093C455.039 347.855 457.517 340.82 455.87 338.262C454.224 335.704 452.065 335.064 450.339 338.901Z" fill="white" stroke="#263238" stroke-miterlimit="10" stroke-linecap="round"></path>
  <path d="M457.851 347.871C457.851 347.871 455.485 360.661 457.324 362.26C457.779 362.609 458.322 362.825 458.892 362.884C459.462 362.943 460.038 362.843 460.555 362.594C461.072 362.346 461.509 361.959 461.82 361.477C462.13 360.994 462.3 360.435 462.312 359.862C462.312 357.448 464.678 349.902 463.111 347.152C461.544 344.402 459.418 343.747 457.851 347.871Z" fill="white" stroke="#263238" stroke-miterlimit="10" stroke-linecap="round"></path>
  <path d="M463.559 351.788C463.559 351.788 461.193 364.578 463.032 366.177C463.495 366.497 464.035 366.688 464.596 366.732C465.158 366.776 465.721 366.671 466.229 366.428C466.737 366.185 467.171 365.811 467.488 365.346C467.806 364.881 467.995 364.34 468.036 363.779C468.036 361.365 470.402 353.802 468.819 350.989C467.236 348.175 465.142 347.679 463.559 351.788Z" fill="white" stroke="#263238" stroke-miterlimit="10" stroke-linecap="round"></path>
  <path d="M468.212 357.208C468.212 357.208 466.533 366.273 467.844 367.504C468.171 367.748 468.558 367.897 468.964 367.935C469.369 367.973 469.778 367.899 470.144 367.721C470.51 367.542 470.821 367.267 471.041 366.924C471.261 366.581 471.383 366.185 471.394 365.778C471.394 364.067 473.088 358.679 471.969 356.729C470.85 354.778 469.331 354.266 468.212 357.208Z" fill="white" stroke="#263238" stroke-miterlimit="10" stroke-linecap="round"></path>
  <path d="M539.053 385.137L513.313 379.781L505.463 417.656L530.835 424.451L539.053 385.137Z" fill="#44A145" stroke="#263238" stroke-miterlimit="10" stroke-linecap="round"></path>
  <path d="M636.066 753.525C636.066 753.525 635.602 770.904 635.602 773.286C635.602 775.668 625.115 777.571 617.504 777.347C609.894 777.123 597.504 777.571 589.878 776.388C581.977 775.47 574.025 775.075 566.072 775.205C561.276 775.205 559.405 767.339 564.473 763.294C569.542 759.249 582.06 758.498 589.478 755.668C596.896 752.838 600.43 744.956 600.43 744.956C606.983 745.157 613.51 745.873 619.951 747.098C625.63 748.37 631.07 750.54 636.066 753.525Z" fill="white" stroke="#263238" stroke-miterlimit="10" stroke-linecap="round"></path>
  <path d="M635.602 773.287C635.602 772.887 635.602 772.055 635.602 770.952C625.274 771.88 607.128 772.343 594.85 772.343C582.571 772.343 566.791 770.745 561.483 770.169C561.755 772.903 563.482 775.205 566.04 775.205C573.992 775.075 581.945 775.47 589.846 776.388C597.472 777.571 609.846 777.108 617.472 777.347C625.098 777.587 635.602 775.621 635.602 773.287Z" fill="white" stroke="#263238" stroke-miterlimit="10" stroke-linecap="round"></path>
  <path d="M614.45 657.312C614.45 657.312 629.639 697.282 632.836 714.069C636.034 730.856 636.034 754.837 636.034 754.837C636.034 754.837 626.441 754.038 621.645 751.64C616.848 749.241 612.852 746.843 612.852 746.843L614.45 657.312Z" fill="white" stroke="#263238" stroke-miterlimit="10" stroke-linecap="round"></path>
  <path d="M568.886 745.244C562.547 750.964 555.873 756.302 548.902 761.232C538.51 768.426 528.917 771.624 532.115 775.621C535.312 779.618 540.108 783.614 562.491 783.614C584.874 783.614 604.858 781.216 609.655 778.019C614.451 774.821 610.454 754.837 610.454 754.837L568.886 745.244Z" fill="white" stroke="#263238" stroke-miterlimit="10" stroke-linecap="round"></path>
  <path d="M611.909 771.895C607.042 773.388 602.065 774.495 597.024 775.205C586.073 776.628 552.978 777.571 544.649 774.965C541.157 774.047 537.987 772.182 535.488 769.577C532.131 771.799 530.5 773.606 532.115 775.62C535.312 779.617 540.108 783.614 562.491 783.614C584.874 783.614 604.858 781.216 609.655 778.019C611.046 777.091 611.685 774.757 611.909 771.895Z" fill="white" stroke="#263238" stroke-miterlimit="10" stroke-linecap="round"></path>
  <path d="M530.516 431.886C530.516 431.886 523.322 535.006 526.519 573.376C529.717 611.747 545.705 652.515 554.498 670.901C563.291 689.287 566.489 722.861 567.288 725.259C568.087 727.657 565.689 730.855 565.689 730.855C565.689 730.855 564.09 728.457 564.09 734.852C564.254 739.947 564.788 745.023 565.689 750.04C565.689 750.04 580.877 758.034 591.269 762.83C597.953 765.754 605.211 767.131 612.501 766.859C612.501 766.859 619.248 750.871 621.646 737.25C624.044 723.628 619.248 687.688 617.649 670.901C616.05 654.114 626.442 528.611 626.442 519.018C626.442 509.426 629.64 478.25 624.044 453.469C618.448 428.688 580.877 427.089 561.692 421.494C542.507 415.898 529.717 423.093 530.516 431.886Z" fill="white" stroke="#263238" stroke-miterlimit="10" stroke-linecap="round"></path>
  <path d="M591.27 762.83C591.813 763.086 592.373 763.309 592.868 763.533C593.908 754.98 595.331 740.895 593.62 729.48C589.599 700.457 587.527 671.198 587.417 641.899C587.417 605.671 578.959 556.141 571.717 524.742C564.922 495.292 571.717 427.617 571.797 426.945L563.803 426.13C563.499 428.96 556.784 495.804 563.883 526.532C571.029 557.516 579.375 606.343 579.375 641.899C579.49 671.594 581.594 701.249 585.674 730.663C587.065 739.951 586.09 751.91 585.194 759.984C587.353 760.991 589.431 761.966 591.27 762.83Z" fill="#263238"></path>
  <path d="M581.58 734.196L582.188 732.997L581.948 731.686C581.948 731.478 578.015 710.358 574.178 679.63C572.931 669.718 571.668 654.578 570.309 638.526C567.287 602.458 563.914 561.577 558.398 544.694C550.9 521.4 551.571 461.559 551.571 460.919H551.3C553.106 440.615 554.641 424.915 554.673 424.579L546.679 423.796C546.599 424.515 539.629 495.341 538.078 531.713C537.246 551.361 542.746 587.11 547.67 618.637C548.694 625.224 549.685 631.731 550.612 637.918C548.374 629.845 545.816 620.46 542.874 609.652C531.347 566.869 537.23 443.764 543.657 434.22C543.38 434.53 543.04 434.779 542.66 434.95C542.28 435.121 541.868 435.21 541.451 435.211L541.259 427.217C540.463 427.247 539.685 427.464 538.988 427.85C538.291 428.236 537.694 428.781 537.246 429.44C528.597 440.983 523.529 568.532 535.152 611.699C539.133 626.439 542.49 638.542 545.192 648.262C545.432 649.094 545.656 649.861 545.88 650.725C549.077 658.83 552.051 665.721 554.513 670.869C559.309 680.845 562.411 695.282 564.393 706.809C564.01 699.759 563.37 690.454 562.475 684.219C562.475 683.723 562.331 683.227 562.235 682.62C562.139 682.012 562.395 681.884 562.459 681.485C564.058 672.324 560.125 646.824 555.568 617.31C550.772 586.134 545.32 550.818 546.12 531.936C546.231 529.634 546.343 527.14 546.487 524.662C547.25 532.239 548.7 539.731 550.82 547.045C555.984 563.032 559.517 605.224 562.363 639.102C563.722 655.233 565.001 670.453 566.264 680.526C569.589 707.145 572.947 726.65 573.858 731.686C570.869 737.691 568.501 743.985 566.792 750.471L574.258 754.324C574.578 749.752 578.846 739.68 581.58 734.196Z" fill="#263238"></path>
  <path d="M612.197 766.874C614.782 750.305 616.166 733.57 616.338 716.801C616.338 696.816 614.595 666.04 613.044 638.893C612.533 629.844 612.053 621.227 611.653 613.601C611.094 602.777 610.055 590.643 608.967 577.804C606.985 554.335 604.923 530.081 605.418 510.129C606.186 479.225 606.202 437.881 606.202 437.465H598.208C598.208 437.881 598.208 479.129 597.424 509.921C596.913 530.321 599.023 554.798 601.006 578.476C602.093 591.266 603.116 603.321 603.675 614.016C604.059 621.659 604.555 630.292 605.066 639.341C606.665 666.392 608.344 697.056 608.344 716.801C608.143 733.432 606.749 750.027 604.171 766.459C606.829 766.831 609.515 766.97 612.197 766.874Z" fill="#263238"></path>
  <path d="M620.238 533.44C620.238 510.146 621.981 461.767 622.46 448.705C621.934 447.531 621.319 446.398 620.622 445.316L614.594 445.076C614.594 445.684 612.244 506.325 612.244 533.408C612.244 558.988 617.6 629.686 618.415 640.173C619.343 622.795 620.83 600.796 622.284 580.284C621.149 561.866 620.238 543.8 620.238 533.44Z" fill="#263238"></path>
  <path d="M604.635 726.954C604.635 714.244 603.036 697.473 601.262 679.727C599.471 661.421 597.617 642.508 597.617 627.847C597.636 589.81 595.013 551.817 589.767 514.143C584.443 476.828 587.816 437.258 588.775 427.634C586.137 426.978 583.515 426.387 580.925 425.827C580.094 433.821 576.209 475.693 581.853 515.358C587.048 552.656 589.644 590.269 589.623 627.927C589.623 642.971 591.493 662.093 593.3 680.574C595.027 698.161 596.641 714.724 596.641 727.034C596.764 739.342 595.563 751.627 593.06 763.678C595.55 764.668 598.124 765.433 600.75 765.964C603.478 753.144 604.781 740.061 604.635 726.954Z" fill="#263238"></path>
  <path d="M550.452 312.682C550.452 312.682 532.546 346.336 532.546 357.735C532.546 369.134 536.351 372.38 536.351 379.43C536.351 386.481 523.321 421.222 523.321 428.816C523.321 436.41 538.51 437.498 543.402 437.498H554.257C559.66 440.191 565.585 441.675 571.62 441.846C580.845 441.846 593.331 445.635 598.799 449.44C604.267 453.245 627.577 465.172 627.577 465.172C627.577 465.172 633.013 460.839 630.774 446.179C628.536 431.518 622.093 421.766 623.18 411.997C624.267 402.229 625.882 352.299 625.882 331.132C625.882 309.964 615.026 292.058 605.258 285.007C595.49 277.957 574.881 287.182 568.359 294.776C561.836 302.37 550.452 312.682 550.452 312.682Z" fill="#44A145" stroke="#263238" stroke-miterlimit="10" stroke-linecap="round"></path>
  <path d="M541.068 422.117L554.258 437.497" stroke="#263238" stroke-miterlimit="10" stroke-linecap="round"></path>
  <path d="M534.72 414.716L538.237 418.809" stroke="#263238" stroke-miterlimit="10" stroke-linecap="round"></path>
  <path d="M581.676 299.189C581.676 299.189 564.09 331.164 564.09 377.529C564.09 423.893 558.494 486.245 558.494 486.245L625.642 479.05C625.642 479.05 632.117 385.794 620.047 336.76C607.976 287.726 589.67 289.597 581.676 299.189Z" stroke="#263238" stroke-width="2" stroke-miterlimit="10" stroke-linecap="round"></path>
  <path d="M560.892 477.45C560.892 477.45 555.296 525.413 561.691 531.808C568.086 538.203 616.849 530.21 625.642 528.611C634.435 527.012 633.364 514.222 632.565 506.228C631.765 498.234 627.513 465.172 627.513 465.172L560.892 477.45Z" fill="white" stroke="#263238" stroke-miterlimit="10" stroke-linecap="round"></path>
  <path d="M560.892 477.45C560.892 477.45 560.892 504.629 576.08 507.827C591.268 511.024 620.845 507.827 624.842 498.234C628.839 488.642 627.512 465.172 627.512 465.172L560.892 477.45Z" fill="#263238" stroke="#263238" stroke-miterlimit="10" stroke-linecap="round"></path>
  <path d="M585.433 160.576C585.433 160.576 559.342 158.978 542.65 169.961C525.959 180.945 538.478 195.541 541.611 198.739C544.745 201.936 550.468 209.179 562.475 209.179C574.482 209.179 599.519 203.951 603.164 187.26C606.809 170.569 585.433 160.576 585.433 160.576Z" fill="#263238" stroke="#263238" stroke-miterlimit="10" stroke-linecap="round"></path>
  <path d="M572.387 185.677C572.387 185.677 552.035 192.983 547.35 200.289C542.666 207.596 542.65 216.981 541.083 220.642C539.516 224.303 528.037 228.987 528.037 231.593C528.037 234.199 536.91 241.506 536.91 241.506C536.91 241.506 537.438 272.506 540.555 272.809C546.471 273.186 552.388 272.088 557.774 269.612L568.726 300.388C568.726 300.388 584.905 263.872 590.117 248.22C595.329 232.569 596.384 198.147 591.716 192.408C587.047 186.668 572.387 185.677 572.387 185.677Z" fill="white" stroke="#263238" stroke-miterlimit="10" stroke-linecap="round"></path>
  <path d="M550.932 219.985C550.293 222.495 548.982 224.334 548.006 224.078C547.031 223.822 546.759 221.584 547.399 219.074C548.038 216.564 549.349 214.725 550.325 214.981C551.3 215.237 551.588 217.475 550.932 219.985Z" fill="#263238"></path>
  <path d="M543.689 244.575C543.689 244.575 554.129 248.748 559.869 240.914" stroke="#263238" stroke-miterlimit="10" stroke-linecap="round"></path>
  <path d="M548.391 209.657C548.391 209.657 550.469 202.879 555.697 209.657" stroke="#263238" stroke-miterlimit="10" stroke-linecap="round"></path>
  <path d="M546.823 227.357L554.13 225.79" stroke="#263238" stroke-miterlimit="10" stroke-linecap="round"></path>
  <path d="M562.476 182.479C562.476 182.479 567.688 179.857 571.86 189.769C576.033 199.681 578.127 232.552 569.254 264.911C560.381 297.27 543.178 322.818 545.273 336.392C547.367 349.965 560.397 361.428 569.254 340.037C578.111 318.645 580.733 295.176 593.779 289.964C606.825 284.752 611.909 299.093 617.649 313.178C623.388 327.263 623.516 368.207 621.95 388.559C620.383 408.912 622.989 420.375 632.374 417.769C641.758 415.163 653.765 412.557 653.253 395.386C652.742 378.215 644.38 371.916 646.986 365.649C649.592 359.382 667.85 344.258 663.677 324.961C659.505 305.664 641.774 299.924 636.035 277.477C630.295 255.031 645.419 225.31 640.719 203.934C636.019 182.559 618.336 165.34 602.637 159.6C586.937 153.861 562.476 164.301 558.814 173.158" fill="#263238"></path>
  <path d="M562.476 182.479C562.476 182.479 567.688 179.857 571.86 189.769C576.033 199.681 578.127 232.552 569.254 264.911C560.381 297.27 543.178 322.818 545.273 336.392C547.367 349.965 560.397 361.428 569.254 340.037C578.111 318.645 580.733 295.176 593.779 289.964C606.825 284.752 611.909 299.093 617.649 313.178C623.388 327.263 623.516 368.207 621.95 388.559C620.383 408.912 622.989 420.375 632.374 417.769C641.758 415.163 653.765 412.557 653.253 395.386C652.742 378.215 644.38 371.916 646.986 365.649C649.592 359.382 667.85 344.258 663.677 324.961C659.505 305.664 641.774 299.924 636.035 277.477C630.295 255.031 645.419 225.31 640.719 203.934C636.019 182.559 618.336 165.34 602.637 159.6C586.937 153.861 562.476 164.301 558.814 173.158" stroke="#263238" stroke-miterlimit="10" stroke-linecap="round"></path>
  <path d="M559.055 300.1C553.715 308.845 552.516 312.762 552.516 312.762" stroke="#7A7A7A" stroke-miterlimit="10" stroke-linecap="round"></path>
  <path d="M593.858 181.488C598.159 186.093 600.349 195.877 599.39 217.94C597.791 253.257 585.945 262.466 570.612 283.202C567.815 286.975 565.432 290.364 563.418 293.37" stroke="#7A7A7A" stroke-miterlimit="10" stroke-linecap="round"></path>
  <path d="M566.759 181.471C569.218 179.668 572.009 178.367 574.972 177.642C577.935 176.918 581.011 176.785 584.025 177.25C586.05 177.487 588.034 177.992 589.925 178.753" stroke="#7A7A7A" stroke-miterlimit="10" stroke-linecap="round"></path>
  <path d="M619.711 229.451C620.686 226.398 621.597 223.44 622.428 220.626C627.8 202.192 623.196 168.794 607.832 168.027C592.468 167.259 564.457 179.554 564.457 179.554C564.457 179.554 561.004 183.391 561.004 185.309C561.004 187.228 563.69 188.379 563.69 188.379" stroke="#7A7A7A" stroke-miterlimit="10" stroke-linecap="round"></path>
  <path d="M636.003 307.646C627.018 296.103 615.874 285.167 612.437 277.062C608.872 268.636 612.085 254.679 616.226 240.722" stroke="#7A7A7A" stroke-miterlimit="10" stroke-linecap="round"></path>
  <path d="M642.749 376.872C638.448 372.748 633.796 370.477 634.323 365.681C635.091 358.758 652.757 345.329 647.369 327.311C645.637 322.155 643.112 317.301 639.887 312.922" stroke="#7A7A7A" stroke-miterlimit="10" stroke-linecap="round"></path>
  <path d="M647.753 383.78C647.304 382.766 646.769 381.793 646.154 380.87" stroke="#7A7A7A" stroke-miterlimit="10" stroke-linecap="round"></path>
  <path d="M543.066 192.375C543.778 193.687 544.785 194.814 546.008 195.668" stroke="#7A7A7A" stroke-miterlimit="10" stroke-linecap="round"></path>
  <path d="M566.76 178.785C566.76 178.785 557.168 172.646 547.943 178.018C546.53 178.743 545.281 179.75 544.271 180.976C543.262 182.203 542.515 183.623 542.075 185.149" stroke="#7A7A7A" stroke-miterlimit="10" stroke-linecap="round"></path>
  <path d="M625.514 722.271C625.514 734.965 624.763 745.74 624.107 752.647C626.682 753.442 629.318 754.019 631.989 754.374C632.677 747.403 633.508 736.036 633.508 722.302C633.508 720.864 633.508 719.377 633.508 717.874C633.508 716.371 633.092 715.316 632.869 714.101C630.572 704.092 627.69 694.226 624.235 684.556C624.827 695.475 625.514 710.168 625.514 722.271Z" fill="#263238"></path>
  <path d="M612.852 746.843L614.626 747.882C615.554 738.769 616.337 727.834 616.337 716.802C616.337 702.413 615.442 682.541 614.354 662.444L612.852 746.843Z" fill="#263238"></path>
  <path d="M544.489 468.434C544.489 468.434 528.741 496.652 524.952 498.283C521.163 499.913 502.698 505.877 502.698 505.877C502.698 505.877 487.509 519.45 485.879 523.783C484.248 528.116 488.596 527.588 488.596 527.588C488.596 527.588 486.998 534.095 489.684 534.095C490.525 534.095 491.355 533.898 492.107 533.521C492.86 533.143 493.513 532.595 494.016 531.921C494.016 531.921 494.56 536.813 496.734 535.118C498.565 533.508 500.202 531.689 501.61 529.698C501.61 529.698 500.523 535.118 504.808 532.4C509.093 529.682 514.576 519.93 514.576 519.93C514.576 519.93 525.432 516.125 527.606 515.038C529.781 513.95 536.288 502.551 536.288 502.551L568.263 477.595L544.489 468.434Z" fill="white" stroke="#263238" stroke-miterlimit="10" stroke-linecap="round"></path>
  <path d="M488.596 527.587C488.596 527.587 498.028 513.886 500.267 511.472" stroke="#263238" stroke-miterlimit="10" stroke-linecap="round"></path>
  <path d="M494.016 531.921C494.016 531.921 501.754 516.685 504.727 513.327" stroke="#263238" stroke-miterlimit="10" stroke-linecap="round"></path>
  <path d="M501.609 529.762C501.609 529.762 507.525 517.612 510.307 514.446" stroke="#263238" stroke-miterlimit="10" stroke-linecap="round"></path>
  <path d="M578.672 332.762L580.27 395.721L544.458 468.433L569.75 493.774C569.75 493.774 609.911 436.218 613.701 429.104C617.49 421.989 622.062 410.91 622.062 398.967C622.062 387.024 621.518 331.675 620.975 324.081C620.431 316.487 616.626 292.601 607.945 287.725C599.264 282.849 579.727 292.521 577.568 311.594" fill="#44A145"></path>
  <path d="M578.672 332.762L580.27 395.721L544.458 468.433L569.75 493.774C569.75 493.774 609.911 436.218 613.701 429.104C617.49 421.989 622.062 410.91 622.062 398.967C622.062 387.024 621.518 331.675 620.975 324.081C620.431 316.487 616.626 292.601 607.945 287.725C599.264 282.849 579.727 292.521 577.568 311.594" stroke="#263238" stroke-miterlimit="10" stroke-linecap="round"></path>
  <path d="M396.78 88.1514H102.607C87.1553 88.1514 74.6289 100.678 74.6289 116.13V701.278C74.6289 716.73 87.1553 729.256 102.607 729.256H396.78C412.232 729.256 424.758 716.73 424.758 701.278V116.13C424.758 100.678 412.232 88.1514 396.78 88.1514Z" fill="#263238" stroke="#263238" stroke-miterlimit="10" stroke-linecap="round"></path>
  <path d="M399.481 149.496H99.0254V678.272H399.481V149.496Z" fill="#E5E5E5" stroke="#263238" stroke-miterlimit="10" stroke-linecap="round"></path>
  <path d="M399.481 149.496H99.0254V179.601H399.481V149.496Z" fill="#263238" stroke="#263238" stroke-miterlimit="10" stroke-linecap="round"></path>
  <path d="M399.481 171.751H99.0254V213.111H399.481V171.751Z" fill="#44A145" stroke="#263238" stroke-miterlimit="10" stroke-linecap="round"></path>
  <path d="M115.461 186.731H131.545" stroke="#263238" stroke-width="2" stroke-miterlimit="10" stroke-linecap="round"></path>
  <path d="M115.461 194.5H131.545" stroke="#263238" stroke-width="2" stroke-miterlimit="10" stroke-linecap="round"></path>
  <path d="M115.461 202.271H131.545" stroke="#263238" stroke-width="2" stroke-miterlimit="10" stroke-linecap="round"></path>
  <path d="M366.867 186.731H381.752" stroke="#263238" stroke-width="2" stroke-miterlimit="10" stroke-linecap="round"></path>
  <path d="M368.753 194.5H381.751" stroke="#263238" stroke-width="2" stroke-miterlimit="10" stroke-linecap="round"></path>
  <path d="M375.276 202.271H381.751" stroke="#263238" stroke-width="2" stroke-miterlimit="10" stroke-linecap="round"></path>
  <path d="M385.94 240.226H114.726V473.981H385.94V240.226Z" fill="white"></path>
  <path d="M385.94 491.76H114.726V675.426H385.94V491.76Z" fill="white"></path>
  <path d="M121.186 675.426V553.92H379.466V675.426" stroke="#CCCCCC" stroke-miterlimit="10" stroke-linecap="round"></path>
  <path d="M375.197 411.102H124.719V460.136H375.197V411.102Z" fill="#E8E8E8"></path>
  <path d="M117.604 158.706C117.604 160.992 115.03 161.807 115.03 163.502V163.614H117.508V164.397H114.198V163.742C114.198 161.296 116.756 160.816 116.756 158.69C116.756 157.906 116.5 157.491 115.877 157.491C115.253 157.491 114.982 157.938 114.982 158.61V159.281H114.198V158.658C114.198 157.507 114.726 156.739 115.893 156.739C117.06 156.739 117.604 157.539 117.604 158.706Z" fill="white"></path>
  <path d="M121.744 158.689V158.881C121.776 159.209 121.705 159.538 121.542 159.825C121.379 160.111 121.131 160.339 120.833 160.48C121.142 160.605 121.4 160.831 121.566 161.121C121.731 161.411 121.794 161.748 121.744 162.078V162.654C121.744 163.821 121.201 164.572 120.034 164.572C118.866 164.572 118.339 163.821 118.339 162.654V162.142H119.122V162.718C119.122 163.389 119.41 163.805 120.018 163.805C120.625 163.805 120.993 163.293 120.993 162.574V161.982C120.993 161.247 120.673 160.879 120.034 160.863H119.57V160.096H120.082C120.212 160.095 120.341 160.066 120.459 160.011C120.578 159.957 120.684 159.878 120.77 159.78C120.856 159.682 120.92 159.567 120.958 159.442C120.997 159.318 121.009 159.186 120.993 159.057V158.705C120.993 157.922 120.721 157.522 120.098 157.522C119.474 157.522 119.202 157.954 119.202 158.625V159.025H118.419V158.673C118.419 157.522 118.962 156.771 120.113 156.771C121.265 156.771 121.744 157.538 121.744 158.689Z" fill="white"></path>
  <path d="M123.391 159.266V160.321H122.592V159.266H123.391ZM123.391 163.39V164.446H122.592V163.39H123.391Z" fill="white"></path>
  <path d="M125.102 159.952C125.21 159.751 125.372 159.585 125.57 159.472C125.767 159.359 125.993 159.303 126.221 159.313C127.196 159.313 127.628 160.032 127.628 161.119V162.59C127.628 163.757 127.084 164.509 125.917 164.509C124.75 164.509 124.19 163.757 124.19 162.59V162.094H124.974V162.654C124.974 163.325 125.262 163.741 125.869 163.741C126.477 163.741 126.748 163.325 126.748 162.654V161.183C126.748 160.496 126.477 160.08 125.869 160.08C125.759 160.076 125.648 160.094 125.545 160.132C125.441 160.171 125.347 160.23 125.266 160.306C125.186 160.382 125.121 160.473 125.077 160.575C125.032 160.676 125.008 160.785 125.006 160.895V161.071H124.19L124.462 156.898H127.388V157.65H125.15L125.102 159.952Z" fill="white"></path>
  <path d="M131.849 158.673V158.817H131.049V158.625C131.049 157.937 130.762 157.538 130.154 157.538C129.547 157.538 129.227 157.953 129.227 158.769V160.463C129.318 160.214 129.487 160 129.709 159.854C129.93 159.707 130.193 159.635 130.458 159.648C131.433 159.648 131.865 160.351 131.865 161.455V162.59C131.865 163.757 131.289 164.508 130.138 164.508C128.987 164.508 128.396 163.757 128.396 162.59V158.737C128.396 157.538 128.923 156.786 130.138 156.786C131.353 156.786 131.849 157.522 131.849 158.673ZM129.227 161.518V162.654C129.227 163.325 129.515 163.741 130.138 163.741C130.762 163.741 131.033 163.325 131.033 162.654V161.518C131.033 160.831 130.73 160.415 130.138 160.415C129.547 160.415 129.227 160.831 129.227 161.518Z" fill="white"></path>
  <path d="M320.95 157.378H317.864V165.1H320.95V157.378Z" fill="white"></path>
  <path d="M325.059 155.843H321.974V165.1H325.059V155.843Z" fill="white"></path>
  <path d="M329.184 154.74H326.099V165.1H329.184V154.74Z" fill="white"></path>
  <path d="M333.294 152.837H330.208V165.115H333.294V152.837Z" fill="white"></path>
  <path d="M382.695 164.892H364.165V153.572H382.695V164.892ZM365.188 163.868H381.592V154.595H365.124L365.188 163.868Z" fill="white"></path>
  <path d="M376.508 155.715H366.739V162.733H376.508V155.715Z" fill="white"></path>
  <path d="M384.374 157.905H382.04V160.575H384.374V157.905Z" fill="white"></path>
  <path d="M352.575 162.429C352.451 162.427 352.33 162.394 352.223 162.333C351.303 161.643 350.188 161.264 349.039 161.25C347.889 161.235 346.765 161.587 345.828 162.253C345.764 162.318 345.688 162.369 345.604 162.403C345.521 162.438 345.431 162.456 345.34 162.456C345.25 162.456 345.16 162.438 345.076 162.403C344.993 162.369 344.917 162.318 344.853 162.253C344.727 162.122 344.656 161.948 344.656 161.766C344.656 161.584 344.727 161.409 344.853 161.278C346.01 160.424 347.411 159.963 348.85 159.963C350.288 159.963 351.689 160.424 352.847 161.278C353.007 161.372 353.125 161.525 353.172 161.705C353.22 161.885 353.195 162.076 353.102 162.237C352.958 162.367 352.769 162.436 352.575 162.429Z" fill="white"></path>
  <path d="M353.981 160.096C353.852 160.097 353.725 160.064 353.613 160C348.177 156.802 344.5 159.904 344.468 160C344.337 160.126 344.162 160.196 343.981 160.196C343.799 160.196 343.624 160.126 343.493 160C343.429 159.936 343.378 159.86 343.343 159.776C343.308 159.693 343.29 159.603 343.29 159.512C343.29 159.422 343.308 159.332 343.343 159.248C343.378 159.165 343.429 159.089 343.493 159.025C343.493 159.025 347.953 155.188 354.269 159.025C354.422 159.121 354.533 159.272 354.578 159.448C354.623 159.624 354.598 159.81 354.508 159.968C354.434 160.024 354.348 160.064 354.258 160.086C354.167 160.108 354.073 160.111 353.981 160.096Z" fill="white"></path>
  <path d="M355.244 157.41C355.12 157.41 354.999 157.377 354.892 157.314C347.986 153.205 343.397 157.074 343.205 157.234C343.068 157.355 342.887 157.416 342.704 157.404C342.522 157.392 342.351 157.308 342.23 157.17C342.109 157.032 342.048 156.852 342.06 156.669C342.072 156.486 342.156 156.315 342.294 156.195C342.294 156.195 347.794 151.494 355.596 156.195C355.674 156.241 355.741 156.302 355.796 156.374C355.85 156.446 355.889 156.529 355.911 156.616C355.934 156.704 355.938 156.795 355.925 156.885C355.912 156.974 355.882 157.06 355.836 157.138C355.765 157.226 355.675 157.297 355.572 157.344C355.47 157.392 355.357 157.414 355.244 157.41Z" fill="white"></path>
  <path d="M348.769 165.323C349.731 165.323 350.512 164.543 350.512 163.581C350.512 162.618 349.731 161.838 348.769 161.838C347.807 161.838 347.026 162.618 347.026 163.581C347.026 164.543 347.807 165.323 348.769 165.323Z" fill="white"></path>
  <path d="M371.248 200.065C368.769 199.087 366.205 198.338 363.59 197.826L363.094 195.86C364.447 194.404 365.17 192.474 365.109 190.488C365.109 186.875 363.014 183.949 360.424 183.949C357.834 183.949 355.756 186.875 355.756 190.488C355.705 191.578 355.904 192.665 356.34 193.666C356.775 194.666 357.434 195.554 358.266 196.26L357.882 197.858C355.267 198.37 352.703 199.119 350.224 200.097C348.625 201.056 348.945 205.197 348.945 205.197H372.527C372.527 205.197 372.847 201.04 371.248 200.065Z" fill="#263238"></path>
  <path d="M114.07 260.818H385.86" stroke="#CCCCCC" stroke-miterlimit="10" stroke-linecap="round"></path>
  <path d="M124.719 322.642H314.444" stroke="#263238" stroke-miterlimit="10" stroke-linecap="round"></path>
  <path d="M144.975 309.853C156.162 309.853 165.231 300.783 165.231 289.596C165.231 278.409 156.162 269.34 144.975 269.34C133.788 269.34 124.719 278.409 124.719 289.596C124.719 300.783 133.788 309.853 144.975 309.853Z" fill="#44A145"></path>
  <path d="M144.975 309.853C148.296 309.859 151.568 309.047 154.501 307.488C157.434 305.929 159.938 303.672 161.792 300.916C163.645 298.16 164.792 294.99 165.13 291.686C165.467 288.381 164.986 285.045 163.728 281.971C159.939 287.071 155.031 292.475 149.116 293.386C138.324 294.985 141.65 287.566 136.661 288.398C134.311 288.797 130.106 293.082 126.317 297.495C127.873 301.157 130.471 304.282 133.788 306.479C137.105 308.677 140.996 309.85 144.975 309.853Z" fill="#263238"></path>
  <path d="M130.058 251.226H209.996" stroke="#CCCCCC" stroke-miterlimit="10" stroke-linecap="round"></path>
  <path d="M163.694 589.393C167.975 579.057 163.067 567.208 152.732 562.926C142.396 558.645 130.547 563.553 126.265 573.889C121.984 584.225 126.892 596.074 137.228 600.355C147.564 604.636 159.413 599.728 163.694 589.393Z" fill="#263238"></path>
  <path d="M144.974 591.235C150.272 591.235 154.567 586.94 154.567 581.642C154.567 576.345 150.272 572.05 144.974 572.05C139.677 572.05 135.382 576.345 135.382 581.642C135.382 586.94 139.677 591.235 144.974 591.235Z" fill="#44A145"></path>
  <path d="M176.95 573.104H256.888" stroke="#263238" stroke-width="2" stroke-miterlimit="10" stroke-linecap="round"></path>
  <path d="M176.95 586.966H215.321" stroke="#263238" stroke-miterlimit="10" stroke-linecap="round"></path>
  <path d="M137.509 424.963H217.447" stroke="#263238" stroke-width="2" stroke-miterlimit="10" stroke-linecap="round"></path>
  <path d="M137.509 437.809H175.879" stroke="#263238" stroke-miterlimit="10" stroke-linecap="round"></path>
  <path d="M137.509 452.67H253.691" stroke="#263238" stroke-miterlimit="10" stroke-linecap="round"></path>
  <path d="M137.509 615.744H342.151" stroke="#263238" stroke-miterlimit="10" stroke-linecap="round"></path>
  <path d="M137.509 632.803H245.17" stroke="#263238" stroke-miterlimit="10" stroke-linecap="round"></path>
  <path d="M137.509 511.296H295.259" stroke="#263238" stroke-miterlimit="10" stroke-linecap="round"></path>
  <path d="M137.509 525.213H230.237" stroke="#263238" stroke-miterlimit="10" stroke-linecap="round"></path>
  <path d="M375.197 335.433H124.719V413.229H375.197V335.433Z" fill="white"></path>
  <path d="M164.16 361.012C164.16 363.121 163.534 365.183 162.362 366.937C161.191 368.691 159.525 370.057 157.577 370.864C155.628 371.672 153.484 371.883 151.415 371.471C149.347 371.06 147.447 370.044 145.955 368.553C144.464 367.061 143.448 365.161 143.037 363.093C142.625 361.024 142.837 358.88 143.644 356.932C144.451 354.983 145.818 353.318 147.571 352.146C149.325 350.974 151.387 350.349 153.496 350.349C154.897 350.347 156.284 350.621 157.579 351.156C158.874 351.691 160.05 352.477 161.041 353.467C162.032 354.458 162.817 355.634 163.352 356.929C163.887 358.224 164.162 359.611 164.16 361.012Z" fill="white"></path>
  <path d="M125 350H163.37" stroke="#263238" stroke-miterlimit="10" stroke-linecap="round"></path>
  <path d="M125 381H282.75" stroke="#263238" stroke-miterlimit="10" stroke-linecap="round"></path>
  <path d="M125 367H217.728" stroke="#263238" stroke-miterlimit="10" stroke-linecap="round"></path>
  <path d="M361.687 247.164L366.883 250.969L372.19 247.164" stroke="#263238" stroke-miterlimit="10" stroke-linecap="round"></path>
  <path d="M361.687 570.979L366.883 574.784L372.19 570.979" stroke="#263238" stroke-miterlimit="10" stroke-linecap="round"></path>
  <path d="M272.876 121.725H226.512C225.452 121.725 224.435 121.304 223.685 120.555C222.936 119.805 222.515 118.788 222.515 117.728C222.515 116.668 222.936 115.652 223.685 114.902C224.435 114.153 225.452 113.731 226.512 113.731H272.876C273.936 113.731 274.952 114.153 275.702 114.902C276.452 115.652 276.873 116.668 276.873 117.728C276.873 118.788 276.452 119.805 275.702 120.555C274.952 121.304 273.936 121.725 272.876 121.725Z" fill="#595959"></path>
  <path d="M249.694 716.466C258.523 716.466 265.681 709.308 265.681 700.478C265.681 691.648 258.523 684.49 249.694 684.49C240.864 684.49 233.706 691.648 233.706 700.478C233.706 709.308 240.864 716.466 249.694 716.466Z" fill="#595959"></path>
  <path d="M207.155 285.638C207.098 285.065 206.854 284.62 206.423 284.303C205.992 283.985 205.408 283.827 204.669 283.827C204.167 283.827 203.743 283.898 203.398 284.04C203.052 284.177 202.787 284.369 202.602 284.615C202.422 284.861 202.332 285.141 202.332 285.453C202.323 285.714 202.377 285.941 202.496 286.135C202.619 286.329 202.787 286.497 203 286.639C203.213 286.777 203.459 286.897 203.739 287.001C204.018 287.101 204.316 287.186 204.634 287.257L205.94 287.57C206.575 287.712 207.157 287.901 207.688 288.138C208.218 288.375 208.677 288.666 209.065 289.011C209.454 289.357 209.754 289.764 209.967 290.233C210.185 290.702 210.296 291.239 210.301 291.845C210.296 292.735 210.069 293.507 209.619 294.161C209.174 294.809 208.53 295.313 207.688 295.673C206.849 296.028 205.839 296.206 204.655 296.206C203.481 296.206 202.458 296.026 201.587 295.666C200.72 295.306 200.043 294.774 199.555 294.068C199.072 293.358 198.819 292.48 198.795 291.433H201.771C201.804 291.921 201.944 292.328 202.19 292.655C202.441 292.977 202.775 293.221 203.192 293.386C203.613 293.547 204.089 293.628 204.619 293.628C205.14 293.628 205.592 293.552 205.976 293.401C206.364 293.249 206.665 293.038 206.878 292.768C207.091 292.499 207.197 292.188 207.197 291.838C207.197 291.511 207.1 291.237 206.906 291.014C206.717 290.792 206.438 290.602 206.068 290.446C205.704 290.29 205.256 290.148 204.726 290.02L203.142 289.622C201.916 289.324 200.947 288.857 200.237 288.223C199.527 287.589 199.174 286.734 199.179 285.659C199.174 284.778 199.409 284.009 199.882 283.351C200.36 282.693 201.016 282.179 201.849 281.81C202.683 281.44 203.63 281.256 204.69 281.256C205.77 281.256 206.712 281.44 207.517 281.81C208.327 282.179 208.956 282.693 209.406 283.351C209.856 284.009 210.088 284.771 210.102 285.638H207.155ZM225.736 288.727C225.736 290.313 225.435 291.663 224.834 292.776C224.238 293.888 223.423 294.738 222.391 295.325C221.364 295.908 220.208 296.199 218.925 296.199C217.632 296.199 216.472 295.905 215.445 295.318C214.417 294.731 213.605 293.881 213.009 292.768C212.412 291.656 212.114 290.309 212.114 288.727C212.114 287.141 212.412 285.792 213.009 284.679C213.605 283.566 214.417 282.719 215.445 282.136C216.472 281.549 217.632 281.256 218.925 281.256C220.208 281.256 221.364 281.549 222.391 282.136C223.423 282.719 224.238 283.566 224.834 284.679C225.435 285.792 225.736 287.141 225.736 288.727ZM222.618 288.727C222.618 287.7 222.464 286.833 222.157 286.128C221.854 285.422 221.425 284.887 220.871 284.523C220.317 284.158 219.668 283.976 218.925 283.976C218.182 283.976 217.533 284.158 216.979 284.523C216.425 284.887 215.994 285.422 215.686 286.128C215.383 286.833 215.232 287.7 215.232 288.727C215.232 289.755 215.383 290.621 215.686 291.327C215.994 292.032 216.425 292.567 216.979 292.932C217.533 293.296 218.182 293.479 218.925 293.479C219.668 293.479 220.317 293.296 220.871 292.932C221.425 292.567 221.854 292.032 222.157 291.327C222.464 290.621 222.618 289.755 222.618 288.727ZM228.014 296V281.455H237.645V283.99H231.089V287.456H237.006V289.991H231.089V296H228.014ZM239.159 283.99V281.455H251.105V283.99H246.652V296H243.613V283.99H239.159ZM256.347 296L252.185 281.455H255.544L257.952 291.561H258.073L260.729 281.455H263.605L266.255 291.582H266.382L268.79 281.455H272.15L267.988 296H264.99L262.221 286.49H262.107L259.344 296H256.347ZM274.838 296H271.542L276.564 281.455H280.527L285.541 296H282.245L278.602 284.778H278.488L274.838 296ZM274.632 290.283H282.416V292.683H274.632V290.283ZM287.292 296V281.455H293.03C294.129 281.455 295.066 281.651 295.843 282.044C296.624 282.432 297.218 282.984 297.625 283.699C298.037 284.409 298.243 285.245 298.243 286.206C298.243 287.172 298.035 288.003 297.618 288.699C297.202 289.39 296.598 289.92 295.807 290.29C295.021 290.659 294.069 290.844 292.952 290.844H289.11V288.372H292.455C293.042 288.372 293.53 288.292 293.918 288.131C294.306 287.97 294.595 287.728 294.784 287.406C294.979 287.084 295.076 286.684 295.076 286.206C295.076 285.723 294.979 285.316 294.784 284.984C294.595 284.653 294.304 284.402 293.911 284.232C293.523 284.056 293.033 283.969 292.441 283.969H290.367V296H287.292ZM295.147 289.381L298.762 296H295.367L291.83 289.381H295.147ZM300.417 296V281.455H310.218V283.99H303.492V287.456H309.713V289.991H303.492V293.464H310.246V296H300.417Z" fill="black"></path>
</svg>
